/Users/ray/Downloads/ffmpeg -hide_banner -y -y -r 2 -start_number 0 -start_number_range 1 -i /Users/ray/Desktop/Projects/Github/rlic-work.github.io/code-toys/huihui2025/media/frame%04d.png -i /Users/ray/Desktop/Projects/Github/rlic-work.github.io/code-toys/huihui2025/media/KritaTempPalettegen_%06d.png -lavfi [0:v][1:v]paletteuse=dither=sierra2_4a:diff_mode=none -f gif -loop 0 -gifflags +transdiff /Users/ray/Desktop/Projects/Github/rlic-work.github.io/code-toys/huihui2025/media/Pink-Flower.gif
=====================================================
Input #0, image2, from '/Users/ray/Desktop/Projects/Github/rlic-work.github.io/code-toys/huihui2025/media/frame%04d.png':
  Duration: 00:00:00.16, start: 0.000000, bitrate: N/A
  Stream #0:0: Video: png, rgba(pc, gbr/unknown/unknown), 128x256 [SAR 2834:2834 DAR 1:2], 25 fps, 25 tbr, 25 tbn
Input #1, image2, from '/Users/ray/Desktop/Projects/Github/rlic-work.github.io/code-toys/huihui2025/media/KritaTempPalettegen_%06d.png':
  Duration: 00:00:00.04, start: 0.000000, bitrate: N/A
  Stream #1:0: Video: png, rgba(pc, gbr/unknown/unknown), 16x16 [SAR 1:1 DAR 1:1], 25 fps, 25 tbr, 25 tbn
Stream mapping:
  Stream #0:0 (png) -> paletteuse
  Stream #1:0 (png) -> paletteuse
  paletteuse:default -> Stream #0:0 (gif)
Press [q] to stop, [?] for help
Output #0, gif, to '/Users/ray/Desktop/Projects/Github/rlic-work.github.io/code-toys/huihui2025/media/Pink-Flower.gif':
  Metadata:
    encoder         : Lavf60.5.100
  Stream #0:0: Video: gif, pal8(pc, gbr/unknown/unknown, progressive), 128x256 [SAR 1:1 DAR 1:2], q=2-31, 200 kb/s, 2 fps, 100 tbn
    Metadata:
      encoder         : Lavc60.11.100 gif
frame=    0 fps=0.0 q=-0.0 size=       0kB time=00:00:00.00 bitrate=N/A speed=   0x    [out#0/gif @ 0x7fe253708640] video:20kB audio:0kB subtitle:0kB other streams:0kB global headers:0kB muxing overhead: 0.099995%
frame=    4 fps=0.0 q=-0.0 Lsize=      20kB time=00:00:01.50 bitrate= 106.8kbits/s speed=28.2x    
